<?xml version="1.0" encoding="UTF-8" standalone="no"?>
<!DOCTYPE svg PUBLIC "-//W3C//DTD SVG 1.1//EN" "http://www.w3.org/Graphics/SVG/1.1/DTD/svg11.dtd">
<svg version="1.1" xmlns="http://www.w3.org/2000/svg" xmlns:xlink="http://www.w3.org/1999/xlink" preserveAspectRatio="xMidYMid meet" viewBox="0 0 640 640" width="640" height="640"><defs><path d="M39.69 24.73L606.62 24.73L606.62 619.25L39.69 619.25L39.69 24.73Z" id="iHkjsstT"></path><path d="M175.23 112.86L390.37 514.22L358.85 531.13L143.71 129.77L175.23 112.86Z" id="b1gxdORpqB"></path><path d="M394.61 112.86L394.59 531.13L358.82 531.12L358.84 112.86L394.61 112.86Z" id="b1QBBRY6Lh"></path><path d="M175.78 112.86L175.76 522.33L139.99 522.33L140.01 112.86L175.78 112.86Z" id="a7cwBjMBs"></path><path d="M402.19 531.13C442.24 483.6 467.28 453.89 477.29 442.01C497.22 418.36 497.24 383.8 477.34 360.13C458.52 337.74 438.87 314.37 420.64 292.7C399.33 267.35 400.46 230.03 423.27 206.02C435.07 193.6 464.58 162.55 511.78 112.86" id="d3xSnBglG2"></path><clipPath id="clipa4b9Jj2ZKZ"><use xlink:href="#d3xSnBglG2" opacity="0.88"></use></clipPath><path d="M285.38 226.58L285.37 417.4L257.55 417.4L257.56 226.58L285.38 226.58Z" id="a3e0fKv9NG"></path></defs><g><g><g><use xlink:href="#iHkjsstT" opacity="1" fill="#445269" fill-opacity="0.92"></use></g><g><use xlink:href="#b1gxdORpqB" opacity="1" fill="#191557" fill-opacity="1"></use></g><g><use xlink:href="#b1QBBRY6Lh" opacity="1" fill="#193cb0" fill-opacity="1"></use></g><g><use xlink:href="#a7cwBjMBs" opacity="1" fill="#18116c" fill-opacity="1"></use></g><g><use xlink:href="#d3xSnBglG2" opacity="0.88" fill="#ffffff" fill-opacity="0"></use><g clip-path="url(#clipa4b9Jj2ZKZ)"><use xlink:href="#d3xSnBglG2" opacity="0.88" fill-opacity="0" stroke="#24334b" stroke-width="75.59" stroke-opacity="1"></use></g></g><g><use xlink:href="#a3e0fKv9NG" opacity="0.46" fill="#6197a5" fill-opacity="1"></use></g></g></g></svg>